<?xml version="1.0" standalone="no"?>
<!DOCTYPE svg PUBLIC "-//W3C//DTD SVG 20010904//EN"
 "http://www.w3.org/TR/2001/REC-SVG-20010904/DTD/svg10.dtd">
<svg version="1.0" xmlns="http://www.w3.org/2000/svg"
 width="700.000000pt" height="700.000000pt" viewBox="0 0 700.000000 700.000000"
 preserveAspectRatio="xMidYMid meet">
<metadata>
Created by potrace 1.14, written by Peter Selinger 2001-2017
</metadata>
<g transform="translate(0.000000,700.000000) scale(0.100000,-0.100000)"
fill="#000000" stroke="none">
<path d="M1513 6405 c-74 -17 -132 -47 -191 -100 -68 -61 -105 -116 -133 -196
l-22 -64 -1 -2505 c0 -1378 2 -2534 6 -2569 18 -157 140 -307 298 -367 42 -16
185 -18 1998 -19 1074 -1 1976 2 2004 6 172 27 336 202 356 379 4 36 7 888 6
1895 l0 1830 -23 69 c-12 38 -36 90 -53 115 -41 62 -1389 1412 -1454 1456 -28
20 -78 45 -110 57 l-59 22 -1285 1 c-932 1 -1300 -2 -1337 -10z m2695 -612
c99 -98 391 -385 647 -638 257 -253 477 -469 489 -480 59 -56 101 -52 -561
-51 -601 1 -608 2 -648 23 -51 27 -80 58 -101 108 -15 36 -16 99 -16 605 1
627 1 610 6 610 2 0 85 -80 184 -177z"/>
</g>
</svg>
